<?xml version="1.0" standalone="no"?>
<!DOCTYPE svg PUBLIC "-//W3C//DTD SVG 20010904//EN"
 "http://www.w3.org/TR/2001/REC-SVG-20010904/DTD/svg10.dtd">
<svg version="1.0" xmlns="http://www.w3.org/2000/svg"
 width="512.000000pt" height="512.000000pt" viewBox="0 0 512.000000 512.000000"
 preserveAspectRatio="xMidYMid meet">

<g transform="translate(0.000000,512.000000) scale(0.100000,-0.100000)"
fill="#000000" stroke="none">
<path d="M1380 2330 c0 -45 2 -50 23 -51 41 -1 87 -24 106 -53 11 -16 131
-305 268 -643 l248 -613 44 2 44 3 170 473 c94 260 174 469 177 465 4 -4 60
-141 124 -303 65 -162 149 -373 188 -468 l70 -172 43 0 42 0 198 553 c109 303
209 576 223 605 34 70 88 117 157 137 l55 16 0 50 0 49 -265 0 -265 0 0 -50
c0 -46 2 -50 23 -50 13 0 47 -7 75 -15 64 -19 87 -55 79 -120 -6 -40 -252
-742 -267 -758 -6 -7 -330 786 -330 810 0 29 25 63 53 73 16 5 54 10 83 10
l54 0 0 50 0 50 -330 0 -330 0 0 -49 0 -48 56 -7 c90 -10 123 -36 171 -131
l20 -40 -131 -362 c-72 -200 -133 -363 -136 -363 -11 0 -321 797 -320 825 1
56 31 75 119 75 l61 0 0 50 0 50 -300 0 -300 0 0 -50z"/>
</g>
</svg>
