<svg width="486" height="479" viewBox="0 0 486 479" fill="none" xmlns="http://www.w3.org/2000/svg">
<path d="M81 179C82.8691 190.37 91.1385 195.399 98.0556 204.444C91.2816 207.154 71.9941 214.345 65.3333 217.5C57.7772 221.079 47.9211 225.021 39.946 228.211L39.2222 228.5C34.2959 230.471 26.6961 235.353 22.5 238.5C18.4592 241.531 17.4167 248.523 14.0556 252.444C8.31731 259.139 6.12951 269.038 4.00001 277.556C1.4099 287.916 2.47619 301.524 3.00001 312C3.55544 323.109 16.1403 332.783 22.5 340.556C27.2712 346.387 33.1276 352.546 39.2222 357C41.6785 358.795 43.313 361.437 45.5556 363.5C48.1396 365.877 51.4981 367.327 53.7778 370C56.873 373.629 61.8107 375.423 65.3333 378.778C69.1236 382.388 73.487 385.033 77.4445 388.444C83.0256 393.256 91.5196 397.04 98.0556 400.444C110.739 407.05 124.903 411.434 137.889 417.444C153.93 424.869 168.857 434.277 184.667 442.111C192.421 445.953 201.715 447.872 210 450.056C236.637 457.076 261.812 466.944 289.111 471C306.589 473.597 324.81 477.602 342.556 476.944C347.345 476.767 350.918 474.97 354.778 472.222C358.596 469.504 361.315 466.117 365.333 463.056C370.268 459.296 376.582 455.519 379.778 450C381.929 446.284 385.901 440.289 389 437.5C393.038 433.866 395.479 426.436 397.444 421.611C405.058 402.924 407.087 383.83 405 364C404.248 356.859 399.147 350.262 395.444 344.444C390.694 336.98 384.476 328.406 378.222 322.778C373.461 318.493 387.556 320.261 389.611 319.944C394.574 319.181 400.538 317.16 405.111 315C414.383 310.622 426.441 312.736 436.444 309.944C443.844 307.879 449.061 304.514 453.556 298.222C456.781 293.706 457.346 286.996 459.556 281.944C466.003 267.206 468.569 251.792 474 236.778C477.522 227.04 480.475 214.695 481.889 204.444C483.171 195.148 484 185.954 484 176.556C484 166.897 484.32 154.893 478.833 146.389C474.01 138.913 468.594 131.701 463.444 124.444C460.446 120.219 457.521 114.237 452.889 111.5C437.715 102.534 422.039 94.7354 406.778 85.7778C398.175 80.7284 390.857 78.5447 381.056 76.4444C372.556 74.6231 366.3 70.9273 358.556 68.1111C351.299 65.4724 343.379 62.2155 336 59.2222C323.246 54.0483 309.98 50.4056 297.222 45.4444C286.627 41.3242 276.667 34.9695 266.444 30C255.718 24.7859 244.113 21.4071 233.444 16C226.834 12.6495 221.384 8.53532 213.944 6.05556C202.991 2.40442 192.699 2 181.222 2C173.364 2 167.294 3.76245 159.611 4.94444C155.199 5.62316 150.967 7.56831 146.667 8.77778C144.086 9.50368 139.491 9.83587 138 12.4444C136.426 15.1986 132.515 16.8604 131.222 20.2222C129.139 25.6382 124.384 29.3263 121.944 34.6111C119.863 39.1207 115.556 42.3215 113 46.6111C108.735 53.77 105.333 60.9962 100.333 67.7778C91.1853 80.1865 82.7833 92.5016 77.2222 107C69.5646 126.965 72.5152 134.879 75 156C75.9897 164.413 79.6481 170.776 81 179Z" stroke="white" stroke-width="3" stroke-linecap="round"/>
<path d="M113 242C107.49 243.002 102.58 247.689 97.8889 250.556C90.4556 255.098 82.3826 259.004 74.5556 262.778C62.8398 268.426 45.1348 269.531 40.2222 283.778C33.8352 302.3 43.5812 324.513 61 333.222C73.2306 339.338 84.5793 348.782 97 355.222C112.587 363.304 128.713 370.519 144.556 378C151.301 381.185 157.423 385.831 163.944 389.5C172.726 394.44 182.585 397.373 191.222 402.556C199.421 407.475 210.034 406.937 218.611 411.556C225.939 415.501 235.363 418.087 243.556 419.5C257.253 421.862 271.066 423.809 284.444 427.556C294.138 430.27 304.187 432.312 314.444 430.944C317.857 430.489 321.059 427.883 324.444 427C327.621 426.171 329.696 425.669 332.444 424.222C337.154 421.743 342.567 418.651 344.944 413.5C347.758 407.404 351.737 402.353 353.778 395.778C355.491 390.258 355 383.71 355 378C355 372.081 352.184 367.083 349 362.222C345.861 357.432 344.446 352.896 340 348.944C328.916 339.092 316.224 332.674 303 326C281.678 315.239 260.42 305.753 237.833 297.667C224.207 292.788 211.855 285.204 198.667 279.222C186.716 273.801 176.393 266.331 164.611 260.556C148.82 252.815 132.733 245.578 116 240" stroke="white" stroke-width="3" stroke-linecap="round"/>
<path d="M152 269C142.039 274.243 131.855 278.659 121.944 283.944C118.289 285.894 109.936 287.924 107.778 292C105.97 295.414 110.385 299.179 112.556 301.5C120.434 309.922 133.75 312.212 144.722 313.944C150.527 314.861 156.565 320 162 320" stroke="white" stroke-width="3" stroke-linecap="round"/>
<path d="M155 295C145.43 300.873 136.001 308.083 128.556 316.556C123.696 322.085 120.253 328.747 115 334" stroke="white" stroke-width="3" stroke-linecap="round"/>
<path d="M207 310C194.98 316.611 182.472 329.132 182 343.778C181.699 353.121 183.147 360.123 187.944 368.278C191.25 373.898 201.71 370.352 205.889 368.444C222.612 360.81 222 345.707 222 330.111C222 318.597 218.876 313.926 209 308" stroke="white" stroke-width="3" stroke-linecap="round"/>
<path d="M276 336C269.689 339.213 263.602 343.049 257.111 345.889C254.786 346.906 251.93 347.061 249.778 348.444C245.019 351.504 238.176 353.76 235.556 359C231.357 367.398 290.274 380.818 303 384" stroke="white" stroke-width="3" stroke-linecap="round"/>
<path d="M279 357C270.124 363.717 266.663 370.469 260.833 379.556C255.68 387.589 249.403 393.925 246 403" stroke="white" stroke-width="3" stroke-linecap="round"/>
<path d="M184.677 20.0126C168.685 22.6266 152.748 23.8881 143.033 38.2054C138.254 45.2483 133.203 53.4887 129.783 61.183C126.985 67.4773 122.258 72.4525 120.108 78.9026C117.3 87.3257 112.079 95.1474 108.961 103.721C102.763 120.764 98.1639 140.516 103.335 158.614C104.045 161.098 106.395 163.447 107.016 166.239C107.691 169.276 108.996 171.778 110.118 175.019C112.014 180.498 114.963 186.014 118.005 190.794C121.541 196.35 127.49 201.741 133.569 204.78C137.875 206.933 142.374 208.879 146.819 210.984C151.226 213.072 156.286 213.759 160.542 215.98C164.237 217.907 167.782 220.409 171.479 222.026C175.585 223.822 181.492 224.463 184.887 227.074C187.537 229.112 192.927 229.882 196.034 231.28C199.926 233.032 203.399 235.796 207.391 237.222C216.415 240.445 226.133 244.942 234.838 249.053C244.299 253.52 254.312 256.403 263.705 261.304C268.673 263.896 274.351 268.741 279.689 269.927C282.374 270.524 285.829 272.436 288.365 273.66C292.444 275.629 296.013 275.673 300.143 276.92C310.552 280.063 320.477 282.255 331.008 284.544C338.062 286.078 344.801 287.212 351.724 288.751C358.68 290.296 366.167 294.22 373.23 294.482C389.871 295.098 406.543 292.4 419.185 281.021C431.854 269.619 436.869 255.431 440.953 238.642C445.618 219.463 455.36 200.729 455.36 180.908C455.36 165.512 454.62 146.516 442.846 134.743C434.457 126.354 423.326 121.302 412.77 116.024C396.049 107.664 378.489 102.545 360.716 96.6748C346.204 91.8818 332.003 85.6286 317.389 81.3213C305.053 77.6851 295.134 70.9305 283.633 65.5472C275.062 61.5353 264.927 58.3566 257.238 52.7176C252.194 49.0189 245.611 44.96 239.991 41.9912C228.252 35.7893 216.936 31.0605 204.552 26.6378C198.157 24.3537 189.754 20.9591 182.784 20.9591" stroke="white" stroke-width="3" stroke-linecap="round"/>
<path d="M151.551 10.5482C144.066 18.0337 133.57 19.0651 125.997 26.6378" stroke="white" stroke-width="3" stroke-linecap="round"/>
<path d="M150.605 25.6913C145.218 29.1467 138.343 31.328 133.779 35.8919C130.022 39.6484 121.53 43.1436 119.372 47.4596" stroke="white" stroke-width="3" stroke-linecap="round"/>
<path d="M137.354 47.4596C129.622 51.9156 119.344 55.4794 112.957 61.8666C108.543 66.2812 101.062 68.7723 97.6037 73.9601" stroke="white" stroke-width="3" stroke-linecap="round"/>
<path d="M121.265 72.0672C111.959 77.6937 103.507 83.275 94.7644 89.1032" stroke="white" stroke-width="3" stroke-linecap="round"/>
<path d="M109.907 95.7283C107.48 102.471 98.0304 100.949 94.7643 106.665C92.6376 110.387 86.7104 112.961 83.407 115.604" stroke="white" stroke-width="3" stroke-linecap="round"/>
<path d="M100.443 124.122C91.4651 127.779 85.428 137.781 76.7819 142.104" stroke="white" stroke-width="3" stroke-linecap="round"/>
<path d="M101.389 143.997C99.0626 146.324 95.8916 148.221 93.3447 150.202C89.7393 153.006 87.6875 158.645 84.3534 161.98" stroke="white" stroke-width="3" stroke-linecap="round"/>
<path d="M100.443 165.765C96.9153 169.293 90.1705 175.9 88.1392 179.962" stroke="white" stroke-width="3" stroke-linecap="round"/>
<path d="M109.907 184.694C106.766 187.074 102.923 190.553 99.4966 192.266" stroke="white" stroke-width="3" stroke-linecap="round"/>
<path d="M120.318 195.105C117.686 197.599 114.708 199.77 112.168 202.309C109.385 205.092 102.943 208.088 101.389 211.195" stroke="white" stroke-width="3" stroke-linecap="round"/>
<path d="M140.194 212.141C135.2 215.47 127.305 218.547 123.631 223.446C121.805 225.881 118.407 226.401 116.533 228.967C114.226 232.123 111.75 234.906 108.961 237.695" stroke="white" stroke-width="3" stroke-linecap="round"/>
<path d="M89.0857 215.927C88.6494 230.106 84.2966 244.604 81.5141 258.517" stroke="white" stroke-width="3" stroke-linecap="round"/>
<path d="M72.0497 223.499C68.8945 236.119 68.555 248.835 65.4245 261.356" stroke="white" stroke-width="3" stroke-linecap="round"/>
<path d="M57.853 235.802C56.1234 247.044 53.1207 258.443 53.1207 269.874" stroke="white" stroke-width="3" stroke-linecap="round"/>
<path d="M42.7098 243.374C40.6351 258.652 36.0847 274.186 36.0847 289.75" stroke="white" stroke-width="3" stroke-linecap="round"/>
<path d="M36.0847 248.106C31.1952 259.515 22.0382 267.283 15.2629 277.446" stroke="white" stroke-width="3" stroke-linecap="round"/>
<path d="M32.2989 276.5C26.658 286.756 15.8905 293.859 11.4771 304.893" stroke="white" stroke-width="3" stroke-linecap="round"/>
<path d="M35.1383 303.946C27.1499 306.609 19.2517 316.994 13.37 322.875" stroke="white" stroke-width="3" stroke-linecap="round"/>
<path d="M42.7098 325.715C37.6168 328.58 33.1272 332.665 28.5131 336.126" stroke="white" stroke-width="3" stroke-linecap="round"/>
<path d="M63.5316 338.018C62.1373 341.156 53.4578 342.701 50.2814 343.697C47.5299 344.56 39.8772 345.57 38.924 348.429" stroke="white" stroke-width="3" stroke-linecap="round"/>
<path d="M77.7283 348.429C70.8746 351.315 63.1055 355.161 55.9601 356.947" stroke="white" stroke-width="3" stroke-linecap="round"/>
<path d="M96.6572 356.947C92.1713 361.06 85.9511 362.851 80.5677 365.465C76.5239 367.43 68.8739 368.336 66.371 372.091" stroke="white" stroke-width="3" stroke-linecap="round"/>
<path d="M109.907 372.091C103.557 375.128 96.8377 378.109 90.0847 380.135C87.8149 380.816 83.2266 382.096 82.4606 384.394" stroke="white" stroke-width="3" stroke-linecap="round"/>
<path d="M131.676 381.555C124.736 386.658 117.012 390.069 109.907 394.805" stroke="white" stroke-width="3" stroke-linecap="round"/>
<path d="M152.498 391.019C148.657 394.269 143.931 396.222 140.141 399.537C138.547 400.933 136.232 403.411 134.515 404.27" stroke="white" stroke-width="3" stroke-linecap="round"/>
<path d="M172.373 402.377C165.571 402.377 160.684 410.114 155.337 412.788" stroke="white" stroke-width="3" stroke-linecap="round"/>
<path d="M190.355 409.948C186.955 412.341 176.159 419.314 176.159 424.145" stroke="white" stroke-width="3" stroke-linecap="round"/>
<path d="M211.177 418.466C208.903 422.561 204.57 424.945 202.659 429.245C201.669 431.473 197.966 432.584 196.981 434.556" stroke="white" stroke-width="3" stroke-linecap="round"/>
<path d="M232.945 426.984C232.606 432.755 224.427 436.973 224.427 442.128" stroke="white" stroke-width="3" stroke-linecap="round"/>
<path d="M256.607 427.931C256.394 435.145 251.369 442.171 247.142 447.806" stroke="white" stroke-width="3" stroke-linecap="round"/>
<path d="M284.054 437.395C280.492 442.239 272.696 451.123 272.696 457.271" stroke="white" stroke-width="3" stroke-linecap="round"/>
<path d="M303.929 437.395C302.006 441.456 301.017 446.142 298.25 449.699C296.681 451.717 294.354 457.326 292.572 458.217" stroke="white" stroke-width="3" stroke-linecap="round"/>
<path d="M328.537 440.235C325.107 442.378 321.988 451.668 320.492 455.325C319.506 457.734 318.543 460.904 317.179 462.949" stroke="white" stroke-width="3" stroke-linecap="round"/>
<path d="M156.283 227.284C151.698 231.453 147.319 236.698 142.087 240.061C139.344 241.824 134.983 244.332 133.569 247.16" stroke="white" stroke-width="3" stroke-linecap="round"/>
<path d="M176.159 229.177C172.279 232.852 167.327 236.124 163.907 240.114C161.662 242.734 158.256 246.646 155.337 248.106" stroke="white" stroke-width="3" stroke-linecap="round"/>
<path d="M205.499 243.374C201.325 247.168 196.23 250.163 191.722 253.574C188.769 255.81 185.75 256.433 183.73 259.463" stroke="white" stroke-width="3" stroke-linecap="round"/>
</svg>
